<?xml version="1.0" encoding="iso-8859-1"?>
<!-- Generator: Adobe Illustrator 19.0.0, SVG Export Plug-In . SVG Version: 6.00 Build 0)  -->
<svg version="1.1" id="Capa_1" xmlns="http://www.w3.org/2000/svg" xmlns:xlink="http://www.w3.org/1999/xlink" x="0px" y="0px"
	 viewBox="0 0 507.9 507.9" style="enable-background:new 0 0 507.9 507.9;" xml:space="preserve">
<g>
	<g>
		<path d="M295.55,442.7V306l154.8-232h-228.8c-4.1-41.5-39.2-74-81.8-74c-45.3,0-82.2,36.9-82.2,82.2s36.9,82.2,82.2,82.2
			c13.6,0,26.7-3.5,38.5-9.8l101,151.4v136.7c-33.7,1.5-65.5,12.6-65.5,32.5c0,21.5,37.1,32.7,73.7,32.7c36.6,0,73.7-11.2,73.7-32.7
			C361.05,455.4,329.35,444.3,295.55,442.7z M139.75,148c-36.3,0-65.8-29.5-65.8-65.8c0-36.3,29.5-65.8,65.8-65.8
			c33.5,0,61.2,25.2,65.3,57.6h-80.6l44.7,67C160.05,145.6,150.05,148,139.75,148z M155.05,90.4h264.8l-132.5,198.4L155.05,90.4z
			 M287.35,491.6c-37.2,0-57.3-11.6-57.3-16.4c0-4.4,17.2-14.6,49.1-16.2v16.2h16.4V459c31.9,1.5,49.1,11.8,49.1,16.2
			C344.65,480,324.65,491.6,287.35,491.6z"/>
	</g>
</g>
<g>
	<g>
		<rect x="221.95" y="131.5" width="131" height="16.4"/>
	</g>
</g>
<g>
</g>
<g>
</g>
<g>
</g>
<g>
</g>
<g>
</g>
<g>
</g>
<g>
</g>
<g>
</g>
<g>
</g>
<g>
</g>
<g>
</g>
<g>
</g>
<g>
</g>
<g>
</g>
<g>
</g>
</svg>
